<mxfile host="app.diagrams.net" agent="Mozilla/5.0 (Macintosh; Intel Mac OS X 10_15_7) AppleWebKit/537.36 (KHTML, like Gecko) Chrome/133.0.0.0 Safari/537.36 Edg/133.0.0.0" version="26.0.16">
  <diagram name="Page-1" id="GbPF9AowB2mmLe0sO7qe">
    <mxGraphModel dx="2388" dy="2466" grid="1" gridSize="10" guides="1" tooltips="1" connect="1" arrows="1" fold="1" page="1" pageScale="1" pageWidth="850" pageHeight="1100" math="0" shadow="0">
      <root>
        <mxCell id="0" />
        <mxCell id="1" parent="0" />
        <mxCell id="0cGCouSPnb9GMBSiqxRV-1" value="" style="rounded=0;whiteSpace=wrap;html=1;fillColor=#d5e8d4;strokeColor=#82b366;movable=1;resizable=1;rotatable=1;deletable=1;editable=1;locked=0;connectable=1;" parent="1" vertex="1">
          <mxGeometry x="170" y="-1090" width="1220" height="810" as="geometry" />
        </mxCell>
        <mxCell id="rDPR5G9_yYafsrfjycnM-2" value="&lt;font style=&quot;font-size: 17px;&quot;&gt;SamHyunAgusthyaBankApp&lt;/font&gt;" style="text;html=1;align=center;verticalAlign=middle;whiteSpace=wrap;rounded=0;movable=1;resizable=1;rotatable=1;deletable=1;editable=1;locked=0;connectable=1;" vertex="1" parent="1">
          <mxGeometry x="750" y="-1070" width="60" height="30" as="geometry" />
        </mxCell>
        <mxCell id="rDPR5G9_yYafsrfjycnM-16" style="rounded=0;orthogonalLoop=1;jettySize=auto;html=1;entryX=0;entryY=0.5;entryDx=0;entryDy=0;endArrow=none;startFill=0;jumpSize=6;movable=1;resizable=1;rotatable=1;deletable=1;editable=1;locked=0;connectable=1;" edge="1" parent="1" source="rDPR5G9_yYafsrfjycnM-3" target="rDPR5G9_yYafsrfjycnM-6">
          <mxGeometry relative="1" as="geometry" />
        </mxCell>
        <mxCell id="rDPR5G9_yYafsrfjycnM-3" value="Customer" style="shape=umlActor;verticalLabelPosition=bottom;verticalAlign=top;html=1;outlineConnect=0;strokeColor=default;align=center;fontFamily=Helvetica;fontSize=12;fontColor=default;fillColor=default;movable=1;resizable=1;rotatable=1;deletable=1;editable=1;locked=0;connectable=1;" vertex="1" parent="1">
          <mxGeometry x="90" y="-900" width="60" height="120" as="geometry" />
        </mxCell>
        <mxCell id="rDPR5G9_yYafsrfjycnM-33" style="edgeStyle=none;shape=connector;rounded=0;jumpSize=6;orthogonalLoop=1;jettySize=auto;html=1;exitX=0.5;exitY=0.5;exitDx=0;exitDy=0;exitPerimeter=0;entryX=1;entryY=0.5;entryDx=0;entryDy=0;strokeColor=default;align=center;verticalAlign=middle;fontFamily=Helvetica;fontSize=11;fontColor=default;labelBackgroundColor=default;startFill=0;endArrow=none;movable=1;resizable=1;rotatable=1;deletable=1;editable=1;locked=0;connectable=1;" edge="1" parent="1" source="rDPR5G9_yYafsrfjycnM-5" target="rDPR5G9_yYafsrfjycnM-32">
          <mxGeometry relative="1" as="geometry" />
        </mxCell>
        <mxCell id="rDPR5G9_yYafsrfjycnM-5" value="Manager" style="shape=umlActor;verticalLabelPosition=bottom;verticalAlign=top;html=1;outlineConnect=0;strokeColor=default;align=center;fontFamily=Helvetica;fontSize=12;fontColor=default;fillColor=default;movable=1;resizable=1;rotatable=1;deletable=1;editable=1;locked=0;connectable=1;" vertex="1" parent="1">
          <mxGeometry x="1430" y="-900" width="60" height="120" as="geometry" />
        </mxCell>
        <mxCell id="rDPR5G9_yYafsrfjycnM-6" value="Login" style="ellipse;whiteSpace=wrap;html=1;movable=1;resizable=1;rotatable=1;deletable=1;editable=1;locked=0;connectable=1;" vertex="1" parent="1">
          <mxGeometry x="290" y="-895" width="170" height="110" as="geometry" />
        </mxCell>
        <mxCell id="rDPR5G9_yYafsrfjycnM-30" style="edgeStyle=none;shape=connector;rounded=0;jumpSize=6;orthogonalLoop=1;jettySize=auto;html=1;strokeColor=default;align=center;verticalAlign=middle;fontFamily=Helvetica;fontSize=11;fontColor=default;labelBackgroundColor=default;startFill=0;endArrow=classic;endFill=1;movable=1;resizable=1;rotatable=1;deletable=1;editable=1;locked=0;connectable=1;" edge="1" parent="1" source="rDPR5G9_yYafsrfjycnM-10" target="rDPR5G9_yYafsrfjycnM-7">
          <mxGeometry relative="1" as="geometry" />
        </mxCell>
        <mxCell id="rDPR5G9_yYafsrfjycnM-7" value="View Accounts" style="ellipse;whiteSpace=wrap;html=1;movable=1;resizable=1;rotatable=1;deletable=1;editable=1;locked=0;connectable=1;" vertex="1" parent="1">
          <mxGeometry x="540" y="-750" width="120" height="80" as="geometry" />
        </mxCell>
        <mxCell id="rDPR5G9_yYafsrfjycnM-8" value="Make a Transfer" style="ellipse;whiteSpace=wrap;html=1;movable=1;resizable=1;rotatable=1;deletable=1;editable=1;locked=0;connectable=1;" vertex="1" parent="1">
          <mxGeometry x="690" y="-580" width="120" height="80" as="geometry" />
        </mxCell>
        <mxCell id="rDPR5G9_yYafsrfjycnM-9" value="Pay Credit Card" style="ellipse;whiteSpace=wrap;html=1;movable=1;resizable=1;rotatable=1;deletable=1;editable=1;locked=0;connectable=1;" vertex="1" parent="1">
          <mxGeometry x="410" y="-580" width="120" height="80" as="geometry" />
        </mxCell>
        <mxCell id="rDPR5G9_yYafsrfjycnM-10" value="Withdraw" style="ellipse;whiteSpace=wrap;html=1;movable=1;resizable=1;rotatable=1;deletable=1;editable=1;locked=0;connectable=1;" vertex="1" parent="1">
          <mxGeometry x="800" y="-725" width="120" height="80" as="geometry" />
        </mxCell>
        <mxCell id="rDPR5G9_yYafsrfjycnM-12" value="View Customers" style="ellipse;whiteSpace=wrap;html=1;movable=1;resizable=1;rotatable=1;deletable=1;editable=1;locked=0;connectable=1;" vertex="1" parent="1">
          <mxGeometry x="1115" y="-730" width="120" height="80" as="geometry" />
        </mxCell>
        <mxCell id="rDPR5G9_yYafsrfjycnM-35" style="edgeStyle=none;shape=connector;rounded=0;jumpSize=6;orthogonalLoop=1;jettySize=auto;html=1;entryX=0;entryY=1;entryDx=0;entryDy=0;strokeColor=default;align=center;verticalAlign=middle;fontFamily=Helvetica;fontSize=11;fontColor=default;labelBackgroundColor=default;startFill=0;endArrow=classic;endFill=1;movable=1;resizable=1;rotatable=1;deletable=1;editable=1;locked=0;connectable=1;" edge="1" parent="1" source="rDPR5G9_yYafsrfjycnM-13" target="rDPR5G9_yYafsrfjycnM-12">
          <mxGeometry relative="1" as="geometry" />
        </mxCell>
        <mxCell id="rDPR5G9_yYafsrfjycnM-13" value="Add Customer" style="ellipse;whiteSpace=wrap;html=1;movable=1;resizable=1;rotatable=1;deletable=1;editable=1;locked=0;connectable=1;" vertex="1" parent="1">
          <mxGeometry x="995" y="-580" width="120" height="80" as="geometry" />
        </mxCell>
        <mxCell id="rDPR5G9_yYafsrfjycnM-36" style="edgeStyle=none;shape=connector;rounded=0;jumpSize=6;orthogonalLoop=1;jettySize=auto;html=1;entryX=1;entryY=1;entryDx=0;entryDy=0;strokeColor=default;align=center;verticalAlign=middle;fontFamily=Helvetica;fontSize=11;fontColor=default;labelBackgroundColor=default;startFill=0;endArrow=classic;endFill=1;movable=1;resizable=1;rotatable=1;deletable=1;editable=1;locked=0;connectable=1;" edge="1" parent="1" source="rDPR5G9_yYafsrfjycnM-14" target="rDPR5G9_yYafsrfjycnM-12">
          <mxGeometry relative="1" as="geometry" />
        </mxCell>
        <mxCell id="rDPR5G9_yYafsrfjycnM-14" value="Remove Customer" style="ellipse;whiteSpace=wrap;html=1;movable=1;resizable=1;rotatable=1;deletable=1;editable=1;locked=0;connectable=1;" vertex="1" parent="1">
          <mxGeometry x="1235" y="-580" width="120" height="80" as="geometry" />
        </mxCell>
        <mxCell id="rDPR5G9_yYafsrfjycnM-21" style="edgeStyle=none;shape=connector;rounded=0;jumpSize=6;orthogonalLoop=1;jettySize=auto;html=1;strokeColor=default;align=center;verticalAlign=middle;fontFamily=Helvetica;fontSize=11;fontColor=default;labelBackgroundColor=default;startFill=0;endArrow=classic;endFill=1;exitX=0.183;exitY=0.075;exitDx=0;exitDy=0;exitPerimeter=0;movable=1;resizable=1;rotatable=1;deletable=1;editable=1;locked=0;connectable=1;" edge="1" parent="1" source="rDPR5G9_yYafsrfjycnM-7" target="rDPR5G9_yYafsrfjycnM-6">
          <mxGeometry relative="1" as="geometry" />
        </mxCell>
        <mxCell id="rDPR5G9_yYafsrfjycnM-22" value="&lt;b&gt;Should we make this an include or extend?&lt;/b&gt;" style="text;html=1;align=center;verticalAlign=middle;whiteSpace=wrap;rounded=0;fontFamily=Helvetica;fontSize=11;labelBackgroundColor=default;fillColor=#fff2cc;strokeColor=#d6b656;movable=1;resizable=1;rotatable=1;deletable=1;editable=1;locked=0;connectable=1;" vertex="1" parent="1">
          <mxGeometry x="560" y="-900" width="100" height="60" as="geometry" />
        </mxCell>
        <mxCell id="rDPR5G9_yYafsrfjycnM-23" style="edgeStyle=none;shape=connector;rounded=0;jumpSize=6;orthogonalLoop=1;jettySize=auto;html=1;strokeColor=default;align=center;verticalAlign=middle;fontFamily=Helvetica;fontSize=11;fontColor=default;labelBackgroundColor=default;startFill=0;endArrow=classic;endFill=1;exitX=0.558;exitY=0.013;exitDx=0;exitDy=0;exitPerimeter=0;movable=1;resizable=1;rotatable=1;deletable=1;editable=1;locked=0;connectable=1;" edge="1" parent="1" source="rDPR5G9_yYafsrfjycnM-9" target="rDPR5G9_yYafsrfjycnM-7">
          <mxGeometry relative="1" as="geometry" />
        </mxCell>
        <mxCell id="rDPR5G9_yYafsrfjycnM-24" style="edgeStyle=none;shape=connector;rounded=0;jumpSize=6;orthogonalLoop=1;jettySize=auto;html=1;strokeColor=default;align=center;verticalAlign=middle;fontFamily=Helvetica;fontSize=11;fontColor=default;labelBackgroundColor=default;startFill=0;endArrow=classic;endFill=1;exitX=0.442;exitY=0;exitDx=0;exitDy=0;exitPerimeter=0;movable=1;resizable=1;rotatable=1;deletable=1;editable=1;locked=0;connectable=1;" edge="1" parent="1" source="rDPR5G9_yYafsrfjycnM-8" target="rDPR5G9_yYafsrfjycnM-7">
          <mxGeometry relative="1" as="geometry" />
        </mxCell>
        <mxCell id="rDPR5G9_yYafsrfjycnM-28" value="&lt;span style=&quot;background-color: light-dark(rgb(213, 232, 212), rgb(237, 237, 237));&quot;&gt;&amp;lt;&amp;lt;extend&amp;gt;&amp;gt;&lt;/span&gt;" style="text;html=1;align=center;verticalAlign=middle;whiteSpace=wrap;rounded=0;fontFamily=Helvetica;fontSize=11;fontColor=default;labelBackgroundColor=default;movable=1;resizable=1;rotatable=1;deletable=1;editable=1;locked=0;connectable=1;" vertex="1" parent="1">
          <mxGeometry x="700" y="-650" width="60" height="30" as="geometry" />
        </mxCell>
        <mxCell id="rDPR5G9_yYafsrfjycnM-29" value="&lt;span style=&quot;background-color: light-dark(rgb(213, 232, 212), rgb(237, 237, 237));&quot;&gt;&amp;lt;&amp;lt;extend&amp;gt;&amp;gt;&lt;/span&gt;" style="text;html=1;align=center;verticalAlign=middle;whiteSpace=wrap;rounded=0;fontFamily=Helvetica;fontSize=11;fontColor=default;labelBackgroundColor=default;movable=1;resizable=1;rotatable=1;deletable=1;editable=1;locked=0;connectable=1;" vertex="1" parent="1">
          <mxGeometry x="460" y="-650" width="60" height="30" as="geometry" />
        </mxCell>
        <mxCell id="rDPR5G9_yYafsrfjycnM-31" value="&lt;span style=&quot;background-color: light-dark(rgb(213, 232, 212), rgb(237, 237, 237));&quot;&gt;&amp;lt;&amp;lt;extend&amp;gt;&amp;gt;&lt;/span&gt;" style="text;html=1;align=center;verticalAlign=middle;whiteSpace=wrap;rounded=0;fontFamily=Helvetica;fontSize=11;fontColor=default;labelBackgroundColor=default;movable=1;resizable=1;rotatable=1;deletable=1;editable=1;locked=0;connectable=1;" vertex="1" parent="1">
          <mxGeometry x="710" y="-735" width="60" height="30" as="geometry" />
        </mxCell>
        <mxCell id="rDPR5G9_yYafsrfjycnM-34" style="edgeStyle=none;shape=connector;rounded=0;jumpSize=6;orthogonalLoop=1;jettySize=auto;html=1;strokeColor=default;align=center;verticalAlign=middle;fontFamily=Helvetica;fontSize=11;fontColor=default;labelBackgroundColor=default;startFill=0;endArrow=classic;endFill=1;exitX=0.5;exitY=0;exitDx=0;exitDy=0;movable=1;resizable=1;rotatable=1;deletable=1;editable=1;locked=0;connectable=1;" edge="1" parent="1" source="rDPR5G9_yYafsrfjycnM-12" target="rDPR5G9_yYafsrfjycnM-32">
          <mxGeometry relative="1" as="geometry" />
        </mxCell>
        <mxCell id="rDPR5G9_yYafsrfjycnM-32" value="Login" style="ellipse;whiteSpace=wrap;html=1;movable=1;resizable=1;rotatable=1;deletable=1;editable=1;locked=0;connectable=1;" vertex="1" parent="1">
          <mxGeometry x="1090" y="-895" width="170" height="110" as="geometry" />
        </mxCell>
        <mxCell id="rDPR5G9_yYafsrfjycnM-37" value="&lt;span style=&quot;background-color: light-dark(rgb(213, 232, 212), rgb(237, 237, 237));&quot;&gt;&amp;lt;&amp;lt;include&amp;gt;&amp;gt;&lt;/span&gt;" style="text;html=1;align=center;verticalAlign=middle;whiteSpace=wrap;rounded=0;fontFamily=Helvetica;fontSize=11;fontColor=default;labelBackgroundColor=default;movable=1;resizable=1;rotatable=1;deletable=1;editable=1;locked=0;connectable=1;" vertex="1" parent="1">
          <mxGeometry x="1200" y="-765" width="60" height="30" as="geometry" />
        </mxCell>
        <mxCell id="rDPR5G9_yYafsrfjycnM-38" value="&lt;span style=&quot;background-color: light-dark(rgb(213, 232, 212), rgb(237, 237, 237));&quot;&gt;&amp;lt;&amp;lt;extend&amp;gt;&amp;gt;&lt;/span&gt;" style="text;html=1;align=center;verticalAlign=middle;whiteSpace=wrap;rounded=0;fontFamily=Helvetica;fontSize=11;fontColor=default;labelBackgroundColor=default;movable=1;resizable=1;rotatable=1;deletable=1;editable=1;locked=0;connectable=1;" vertex="1" parent="1">
          <mxGeometry x="1040" y="-645" width="60" height="30" as="geometry" />
        </mxCell>
        <mxCell id="rDPR5G9_yYafsrfjycnM-39" value="&lt;span style=&quot;background-color: light-dark(rgb(213, 232, 212), rgb(237, 237, 237));&quot;&gt;&amp;lt;&amp;lt;extend&amp;gt;&amp;gt;&lt;/span&gt;" style="text;html=1;align=center;verticalAlign=middle;whiteSpace=wrap;rounded=0;fontFamily=Helvetica;fontSize=11;fontColor=default;labelBackgroundColor=default;movable=1;resizable=1;rotatable=1;deletable=1;editable=1;locked=0;connectable=1;" vertex="1" parent="1">
          <mxGeometry x="1250" y="-645" width="60" height="30" as="geometry" />
        </mxCell>
        <mxCell id="rDPR5G9_yYafsrfjycnM-40" value="&lt;span style=&quot;background-color: light-dark(rgb(213, 232, 212), rgb(237, 237, 237));&quot;&gt;&amp;lt;&amp;lt;include&amp;gt;&amp;gt;&lt;/span&gt;" style="text;html=1;align=center;verticalAlign=middle;whiteSpace=wrap;rounded=0;fontFamily=Helvetica;fontSize=11;fontColor=default;labelBackgroundColor=default;movable=1;resizable=1;rotatable=1;deletable=1;editable=1;locked=0;connectable=1;" vertex="1" parent="1">
          <mxGeometry x="500" y="-810" width="60" height="30" as="geometry" />
        </mxCell>
      </root>
    </mxGraphModel>
  </diagram>
</mxfile>
